<svg width="69" height="70" viewBox="0 0 69 70" fill="none" xmlns="http://www.w3.org/2000/svg">
<g clip-path="url(#clip0_71_172)">
<path d="M45.9457 27.3887C46.9196 27.3887 47.8272 27.6322 48.6683 28.1191C49.5095 28.6061 50.1957 29.2923 50.7269 30.1777C51.2582 31.0632 51.5238 32.0371 51.5238 33.0996C51.5238 38.6777 51.5238 43.2376 51.5238 46.7793C51.5238 47.3105 51.5238 48.4616 51.5238 50.2324C51.5238 52.0033 51.5238 53.5085 51.5238 54.748C51.5238 58.5553 50.2621 61.8092 47.7386 64.5098C45.2152 67.2103 42.1384 68.5605 38.5082 68.5605H24.4301C22.0394 68.5605 19.8259 67.9186 17.7894 66.6348C15.753 65.3509 14.1592 63.6022 13.0082 61.3887L0.523804 37.3496C0.258179 36.8184 0.34672 36.3757 0.789429 36.0215L2.11755 34.959C3.7113 33.4538 5.57068 32.7897 7.69568 32.9668C9.82068 33.1439 11.5472 34.0736 12.8754 35.7559L14.3363 37.4824L14.4691 11.3184C14.4691 9.81315 15.0004 8.48503 16.0629 7.33398C17.1254 6.18294 18.4092 5.60742 19.9144 5.60742C20.8884 5.60742 21.7959 5.87305 22.6371 6.4043C23.4782 6.93555 24.1423 7.64388 24.6293 8.5293C25.1163 9.41471 25.3597 10.3887 25.3597 11.4512V24.5996C26.3337 23.8913 27.3962 23.5371 28.5472 23.5371C30.7608 23.5371 32.3988 24.5553 33.4613 26.5918C34.5238 25.5293 35.7634 24.998 37.1801 24.998C38.3311 24.998 39.3936 25.3522 40.3676 26.0605C41.3415 26.7689 42.0056 27.6543 42.3597 28.7168C43.3337 27.8314 44.529 27.3887 45.9457 27.3887ZM49.1332 46.6465C49.1332 41.6882 49.1332 37.1725 49.1332 33.0996C49.1332 32.1257 48.8233 31.3066 48.2035 30.6426C47.5837 29.9785 46.8311 29.6465 45.9457 29.6465C45.0603 29.6465 44.2855 29.9785 43.6215 30.6426C42.9574 31.3066 42.6254 32.1257 42.6254 33.0996V35.8887C42.6254 36.597 42.2491 36.9512 41.4965 36.9512C40.7439 36.9512 40.3676 36.597 40.3676 35.8887V30.709C40.3676 29.735 40.0577 28.916 39.4379 28.252C38.8181 27.5879 38.0876 27.2559 37.2465 27.2559C36.4053 27.2559 35.6748 27.5879 35.0551 28.252C34.4353 28.916 34.1254 29.735 34.1254 30.709V36.1543C34.1254 36.9512 33.7491 37.3496 32.9965 37.3496C32.2439 37.3496 31.8676 36.9512 31.8676 36.1543V29.248C31.8676 28.2741 31.5355 27.4551 30.8715 26.791C30.2074 26.127 29.4327 25.7949 28.5472 25.7949C27.6618 25.7949 26.9092 26.127 26.2894 26.791C25.6696 27.4551 25.3597 28.2298 25.3597 29.1152V36.9512C25.3597 37.6595 24.9834 38.0137 24.2308 38.0137C23.4782 38.0137 23.1019 37.6595 23.1019 36.9512V29.3809C23.1019 29.3809 23.1019 29.3366 23.1019 29.248C23.1019 29.248 23.1019 29.2038 23.1019 29.1152V11.4512C23.1019 10.4772 22.792 9.63607 22.1722 8.92773C21.5525 8.2194 20.7998 7.86523 19.9144 7.86523C19.029 7.86523 18.2764 8.2194 17.6566 8.92773C17.0368 9.63607 16.7269 10.4329 16.7269 11.3184V40.6699C16.7269 41.2012 16.4613 41.5553 15.9301 41.7324C15.3988 41.9095 14.9561 41.821 14.6019 41.4668L11.1488 37.2168C10.1748 35.9772 8.93526 35.3132 7.43005 35.2246C6.01339 35.1361 4.7738 35.5788 3.7113 36.5527L3.57849 36.6855L3.04724 37.084L15.1332 60.3262C16.0186 62.1855 17.3025 63.6465 18.9847 64.709C20.667 65.7715 22.4821 66.3027 24.4301 66.3027H38.5082C41.4301 66.3027 43.9314 65.1738 46.0121 62.916C48.0928 60.6582 49.1332 57.9355 49.1332 54.748C49.1332 53.4199 49.1332 51.8262 49.1332 49.9668C49.1332 48.1074 49.1332 47.0007 49.1332 46.6465ZM11.9457 10.7871C11.9457 11.4954 11.5694 11.8496 10.8168 11.8496C10.0642 11.8496 9.68787 11.4954 9.68787 10.7871C9.68787 7.95378 10.684 5.54102 12.6761 3.54883C14.6683 1.55664 17.059 0.560547 19.848 0.560547C22.6371 0.560547 25.0277 1.55664 27.0199 3.54883C29.0121 5.54102 30.0082 7.95378 30.0082 10.7871C30.0082 11.4954 29.6319 11.8496 28.8793 11.8496C28.1267 11.8496 27.7504 11.4954 27.7504 10.7871C27.7504 8.57357 26.9756 6.69206 25.4261 5.14258C23.8767 3.5931 21.9952 2.81836 19.7816 2.81836C18.7191 2.81836 17.7009 3.03971 16.7269 3.48242C15.753 3.92513 14.9118 4.50065 14.2035 5.20898C13.4952 5.91732 12.9418 6.75846 12.5433 7.73242C12.1449 8.70638 11.9457 9.72461 11.9457 10.7871Z" fill="#777777"/>
</g>
<defs>
<clipPath id="clip0_71_172">
<rect width="68" height="69" fill="white" transform="matrix(1 0 0 -1 0.390991 69.0605)"/>
</clipPath>
</defs>
</svg>
