<svg width="69" height="70" viewBox="0 0 69 70" fill="none" xmlns="http://www.w3.org/2000/svg">
<g clip-path="url(#clip0_71_179)">
<path d="M52.8235 61.5215C53.1776 61.5215 53.5097 61.6543 53.8196 61.9199C54.1295 62.1855 54.2844 62.5176 54.2844 62.916C54.2844 63.3145 54.1295 63.6465 53.8196 63.9121C53.5097 64.1777 53.1776 64.3105 52.8235 64.3105C46.8026 64.3105 41.5123 62.3184 36.9524 58.334C32.3925 54.3496 30.1125 49.7454 30.1125 44.5215C30.1125 44.0788 30.2675 43.7246 30.5774 43.459C30.8873 43.1934 31.2193 43.0605 31.5735 43.0605C31.9276 43.0605 32.2597 43.1934 32.5696 43.459C32.8795 43.7246 33.0344 44.0788 33.0344 44.5215C33.0344 49.0371 35.0045 52.9993 38.9446 56.4082C42.8847 59.8171 47.511 61.5215 52.8235 61.5215ZM10.3235 9.32617C9.79222 9.32617 9.39378 9.10482 9.12816 8.66211C8.59691 7.86523 8.72972 7.20117 9.52659 6.66992C16.3443 2.59701 23.6933 0.560547 31.5735 0.560547C38.8339 0.560547 45.6959 2.33138 52.1594 5.87305C52.9563 6.31575 53.1334 6.95768 52.6907 7.79883C52.2479 8.63997 51.5839 8.79492 50.6985 8.26367C44.6776 4.98763 38.0591 3.41602 30.843 3.54883C23.6269 3.68164 17.0526 5.56315 11.1203 9.19336C10.8547 9.2819 10.5891 9.32617 10.3235 9.32617ZM62.5188 25.3965C62.9615 26.1934 62.7844 26.8132 61.9875 27.2559C61.8104 27.4329 61.5891 27.5215 61.3235 27.5215C60.7922 27.5215 60.3938 27.2559 60.1282 26.7246C57.5604 22.209 53.7089 18.6009 48.5735 15.9004C43.438 13.1999 37.7714 11.8496 31.5735 11.8496C25.3756 11.8496 19.7089 13.1999 14.5735 15.9004C9.43805 18.6009 5.58649 22.209 3.01878 26.7246C2.57607 27.5215 1.95628 27.6986 1.15941 27.2559C0.362531 26.8132 0.185448 26.1934 0.628156 25.3965C3.37295 20.4382 7.55654 16.4759 13.1789 13.5098C18.8013 10.5436 24.9328 9.06055 31.5735 9.06055C38.2141 9.06055 44.3456 10.5436 49.968 13.5098C55.5904 16.4759 59.774 20.4382 62.5188 25.3965ZM14.5735 45.8496C14.5735 53.11 17.4953 59.8835 23.3391 66.1699C24.0474 66.8783 24.0474 67.5423 23.3391 68.1621C23.0735 68.4277 22.7636 68.5605 22.4094 68.5605C21.9667 68.5605 21.6125 68.4277 21.3469 68.1621C14.9719 61.2559 11.7844 53.8184 11.7844 45.8496C11.7844 40.1829 13.6659 35.4681 17.4289 31.7051C21.192 27.9421 25.9068 26.0605 31.5735 26.0605C37.5058 26.0605 42.287 27.7428 45.9172 31.1074C49.5474 34.472 51.3625 38.9434 51.3625 44.5215C51.3625 44.8757 51.2297 45.1855 50.9641 45.4512C50.6985 45.7168 50.3886 45.8496 50.0344 45.8496C49.7688 45.8496 49.5696 45.8275 49.4367 45.7832C49.3039 45.7389 49.1711 45.6504 49.0383 45.5176C48.9055 45.3848 48.7948 45.2298 48.7063 45.0527C48.6177 44.8757 48.5735 44.6986 48.5735 44.5215C48.5735 39.7402 47.024 35.9329 43.925 33.0996C40.8261 30.2663 36.7089 28.8496 31.5735 28.8496C26.6151 28.8496 22.5422 30.4655 19.3547 33.6973C16.1672 36.929 14.5735 40.9798 14.5735 45.8496ZM31.5735 17.5605C39.6308 17.5605 46.3599 20.2611 51.761 25.6621C57.162 31.0632 59.8625 37.7923 59.8625 45.8496C59.8625 48.5944 58.9107 50.9408 57.0071 52.8887C55.1034 54.8366 52.7792 55.8105 50.0344 55.8105C47.2896 55.8105 44.9433 54.8366 42.9953 52.8887C41.0474 50.9408 40.0735 48.5944 40.0735 45.8496C40.0735 43.1048 39.2323 41.002 37.55 39.541C35.8677 38.0801 33.8756 37.3496 31.5735 37.3496C29.2714 37.3496 27.2792 38.0801 25.5969 39.541C23.9146 41.002 23.0735 43.1048 23.0735 45.8496C23.0735 54.1725 27.6334 60.8574 36.7532 65.9043C37.55 66.347 37.7271 66.9668 37.2844 67.7637C37.0188 68.2949 36.6203 68.5605 36.0891 68.5605C35.8235 68.5605 35.6021 68.5163 35.425 68.4277C25.3313 62.8496 20.2844 55.3236 20.2844 45.8496C20.2844 43.7246 20.7493 41.7988 21.6789 40.0723C22.6086 38.3457 23.9368 36.9954 25.6633 36.0215C27.3899 35.0475 29.3599 34.5605 31.5735 34.5605C34.9381 34.5605 37.6607 35.623 39.7414 37.748C41.8222 39.873 42.8625 42.5736 42.8625 45.8496C42.8625 47.7975 43.5709 49.4798 44.9875 50.8965C46.4042 52.3132 48.0865 53.0215 50.0344 53.0215C51.9823 53.0215 53.6425 52.3132 55.0149 50.8965C56.3873 49.4798 57.0735 47.7975 57.0735 45.8496C57.0735 38.5892 54.6386 32.5241 49.7688 27.6543C44.899 22.7845 38.8339 20.3496 31.5735 20.3496C24.0474 20.3496 17.9159 22.6074 13.1789 27.123C8.44196 31.6387 6.07347 37.4382 6.07347 44.5215C6.07347 47.2663 7.00316 50.8522 8.86253 55.2793C9.2167 56.1647 8.95107 56.7845 8.06566 57.1387C7.18024 57.4928 6.56045 57.2272 6.20628 56.3418C4.25836 51.6491 3.28441 47.709 3.28441 44.5215C3.28441 36.7298 5.94066 30.2884 11.2532 25.1973C16.5657 20.1061 23.3391 17.5605 31.5735 17.5605Z" fill="#777777"/>
</g>
<defs>
<clipPath id="clip0_71_179">
<rect width="68" height="69" fill="white" transform="matrix(1 0 0 -1 0.390991 69.0605)"/>
</clipPath>
</defs>
</svg>
