<svg width="69" height="70" viewBox="0 0 69 70" fill="none" xmlns="http://www.w3.org/2000/svg">
<g clip-path="url(#clip0_71_193)">
<path d="M50.4911 12.3809C53.0588 16.0996 54.6304 20.1947 55.206 24.666C55.7815 29.1374 55.2724 33.498 53.6786 37.748C52.7932 39.9616 51.4651 42.1309 49.6942 44.2559L29.7724 67.7637C29.2411 68.2949 28.6213 68.5605 27.913 68.5605C27.2047 68.5605 26.5849 68.2949 26.0536 67.7637L6.13174 44.2559C4.36091 42.1309 3.03279 39.9616 2.14737 37.748C0.553619 33.498 0.0445042 29.1374 0.620025 24.666C1.19555 20.1947 2.76716 16.0996 5.33487 12.3809C7.90258 8.66211 11.1565 5.76237 15.0966 3.68164C19.0367 1.60091 23.3088 0.560547 27.913 0.560547C32.5172 0.560547 36.7893 1.60091 40.7294 3.68164C44.6695 5.76237 47.9234 8.66211 50.4911 12.3809ZM49.163 36.0215C50.4911 32.5684 50.9338 28.9824 50.4911 25.2637C50.0484 21.5449 48.7203 18.1361 46.5067 15.0371C45.0901 13.0007 43.4299 11.252 41.5263 9.79102C39.6226 8.33008 37.4976 7.22331 35.1513 6.4707C32.8049 5.7181 30.3922 5.3418 27.913 5.3418C24.1057 5.3418 20.5862 6.18294 17.3544 7.86523C14.1226 9.54753 11.4221 11.9382 9.25284 15.0371C7.08357 18.1361 5.77758 21.5449 5.33487 25.2637C4.89216 28.9824 5.33487 32.5684 6.66299 36.0215C7.28279 37.7923 8.30101 39.5189 9.71768 41.2012L27.913 62.4512L46.1083 41.2012C47.525 39.5189 48.5432 37.7923 49.163 36.0215ZM18.5497 18.5566C18.5497 18.5566 19.2027 17.9036 20.5087 16.5977C21.8147 15.2917 24.2828 14.6387 27.913 14.6387C31.5432 14.6387 34.6643 15.9447 37.2763 18.5566C39.8883 21.1686 41.1942 24.3118 41.1942 27.9863C41.1942 31.6608 39.8883 34.804 37.2763 37.416C34.6643 40.028 31.5432 41.334 27.913 41.334C24.2828 41.334 21.1617 40.028 18.5497 37.416C15.9377 34.804 14.6317 31.6608 14.6317 27.9863C14.6317 24.3118 15.9377 21.1686 18.5497 18.5566ZM21.87 34.0293C21.87 34.0293 22.2795 34.4499 23.0985 35.291C23.9176 36.1322 25.5224 36.5527 27.913 36.5527C30.3036 36.5527 32.3179 35.7116 33.956 34.0293C35.594 32.347 36.413 30.3105 36.413 27.9199C36.413 26.4147 36.0367 24.998 35.2841 23.6699C34.5315 22.3418 33.4911 21.3014 32.163 20.5488C30.8349 19.7962 29.4182 19.4199 27.913 19.4199C25.5224 19.4199 23.508 20.2611 21.87 21.9434C20.232 23.6257 19.413 25.64 19.413 27.9863C19.413 30.3327 20.232 32.347 21.87 34.0293Z" fill="#777777"/>
</g>
<defs>
<clipPath id="clip0_71_193">
<rect width="68" height="69" fill="white" transform="matrix(1 0 0 -1 0.390991 69.0605)"/>
</clipPath>
</defs>
</svg>
