<svg width="69" height="70" viewBox="0 0 69 70" fill="none" xmlns="http://www.w3.org/2000/svg">
<g clip-path="url(#clip0_71_186)">
<path d="M68.391 11.8496C68.391 13.9746 67.8819 15.9004 66.8636 17.627C65.8454 19.3535 64.4509 20.7038 62.6801 21.6777V57.2715C62.6801 60.3704 61.5733 63.0267 59.3597 65.2402C57.1462 67.4538 54.4899 68.5605 51.391 68.5605H11.6801C8.5811 68.5605 5.92485 67.4538 3.7113 65.2402C1.49776 63.0267 0.390991 60.3704 0.390991 57.2715V17.5605C0.390991 14.4616 1.49776 11.8053 3.7113 9.5918C5.92485 7.37825 8.5811 6.27148 11.6801 6.27148H47.2738C48.2478 4.50065 49.598 3.10612 51.3246 2.08789C53.0511 1.06966 54.9769 0.560547 57.1019 0.560547C60.2009 0.560547 62.8571 1.66732 65.0707 3.88086C67.2842 6.0944 68.391 8.75065 68.391 11.8496ZM57.1019 57.2715V23.2715C53.9144 23.2715 51.2139 22.1647 49.0004 19.9512C46.7868 17.7376 45.6801 15.0371 45.6801 11.8496H11.6801C10.1748 11.8496 8.86886 12.403 7.76208 13.5098C6.65531 14.6165 6.10193 15.9668 6.10193 17.5605V57.2715C6.10193 58.7767 6.65531 60.0827 7.76208 61.1895C8.86886 62.2962 10.1748 62.8496 11.6801 62.8496H51.391C52.9847 62.8496 54.335 62.2962 55.4418 61.1895C56.5485 60.0827 57.1019 58.7767 57.1019 57.2715ZM59.2269 17.1621C61.529 16.0996 62.6801 14.3288 62.6801 11.8496C62.6801 10.3444 62.1267 9.03841 61.0199 7.93164C59.9131 6.82487 58.6071 6.27148 57.1019 6.27148C54.6228 6.27148 52.8519 7.42253 51.7894 9.72461C51.7894 9.81315 51.7894 9.90169 51.7894 9.99023C51.5238 10.61 51.391 11.1855 51.391 11.7168C51.391 11.8053 51.391 11.8496 51.391 11.8496C51.391 13.4434 51.9444 14.7936 53.0511 15.9004C54.1579 17.0072 55.5082 17.5605 57.1019 17.5605C57.1019 17.5605 57.1462 17.5605 57.2347 17.5605C57.766 17.5605 58.3415 17.4277 58.9613 17.1621C59.0498 17.1621 59.1384 17.1621 59.2269 17.1621Z" fill="#777777"/>
</g>
<defs>
<clipPath id="clip0_71_186">
<rect width="68" height="69" fill="white" transform="matrix(1 0 0 -1 0.390991 69.0605)"/>
</clipPath>
</defs>
</svg>
