<svg width="69" height="70" viewBox="0 0 69 70" fill="none" xmlns="http://www.w3.org/2000/svg">
<g clip-path="url(#clip0_71_207)">
<path d="M10.3519 10.5215C10.3519 10.5215 12.0121 8.86133 15.3324 5.54102C18.6527 2.2207 25.0056 0.560547 34.391 0.560547C43.7764 0.560547 51.7894 3.88086 58.4301 10.5215C65.0707 17.1621 68.391 25.1751 68.391 34.5605C68.391 43.946 65.0707 51.959 58.4301 58.5996C51.7894 65.2402 43.7764 68.5605 34.391 68.5605C25.0056 68.5605 16.9926 65.2402 10.3519 58.5996C3.7113 51.959 0.390991 43.946 0.390991 34.5605C0.390991 25.1751 3.7113 17.1621 10.3519 10.5215ZM63.7426 46.5137C65.1592 43.0605 65.9561 39.4746 66.1332 35.7559H55.9066C55.8181 39.9173 55.2426 44.0345 54.1801 48.1074L63.7426 46.5137ZM2.6488 35.7559C2.82589 39.4746 3.62276 43.0605 5.03943 46.5137L14.6019 48.1074C13.5394 44.0345 12.9639 39.9173 12.8754 35.7559H2.6488ZM5.03943 22.6074C3.62276 26.0605 2.82589 29.6465 2.6488 33.3652H12.8754C12.9639 29.2038 13.5394 25.0866 14.6019 21.0137L5.03943 22.6074ZM35.5863 18.7559V33.3652H53.6488C53.5603 29.0267 52.8962 24.7767 51.6566 20.6152L47.6722 19.8184C43.6879 19.1986 39.6592 18.8444 35.5863 18.7559ZM48.0707 17.6934L50.8597 18.0918C49.266 13.7533 47.1189 10.2116 44.4183 7.4668C41.7178 4.722 38.7738 3.2168 35.5863 2.95117V16.498C39.7478 16.5866 43.9092 16.985 48.0707 17.6934ZM33.1957 16.498V2.95117C30.0082 3.2168 27.0642 4.722 24.3636 7.4668C21.6631 10.2116 19.516 13.7533 17.9222 18.0918L20.7113 17.6934C24.8728 16.985 29.0342 16.5866 33.1957 16.498ZM21.1097 19.8184L17.1254 20.6152C15.8858 24.7767 15.2217 29.0267 15.1332 33.3652H33.1957V18.7559C29.1228 18.8444 25.0941 19.1986 21.1097 19.8184ZM15.1332 35.7559C15.2217 40.0944 15.8858 44.3444 17.1254 48.5059L21.1097 49.3027C25.0941 49.9225 29.1228 50.2767 33.1957 50.3652V35.7559H15.1332ZM20.7113 51.4277L17.9222 51.0293C19.516 55.3678 21.6631 58.9095 24.3636 61.6543C27.0642 64.3991 30.0082 65.9043 33.1957 66.1699V52.623C29.0342 52.5345 24.8728 52.1361 20.7113 51.4277ZM35.5863 52.623V66.1699C38.7738 65.9043 41.7178 64.3991 44.4183 61.6543C47.1189 58.9095 49.266 55.3678 50.8597 51.0293L48.0707 51.4277C43.9092 52.1361 39.7478 52.5345 35.5863 52.623ZM47.6722 49.3027L51.6566 48.5059C52.8962 44.3444 53.5603 40.0944 53.6488 35.7559H35.5863V50.3652C39.6592 50.2767 43.6879 49.9225 47.6722 49.3027ZM55.9066 33.3652H66.1332C65.9561 29.6465 65.1592 26.0605 63.7426 22.6074L54.1801 21.0137C55.2426 25.0866 55.8181 29.2038 55.9066 33.3652ZM62.6801 20.2168C58.6957 12.4251 52.5863 7.1569 44.3519 4.41211C48.6905 8.30794 51.7009 13.0007 53.3832 18.4902L62.6801 20.2168ZM24.4301 4.41211C16.1957 7.1569 10.0863 12.4251 6.10193 20.2168L15.3988 18.4902C17.0811 13.0007 20.0915 8.30794 24.4301 4.41211ZM6.10193 48.9043C10.0863 56.696 16.1957 61.9642 24.4301 64.709C20.0915 60.8132 17.0811 56.1204 15.3988 50.6309L6.10193 48.9043ZM44.3519 64.709C52.5863 61.9642 58.6957 56.696 62.6801 48.9043L53.3832 50.6309C51.7009 56.1204 48.6905 60.8132 44.3519 64.709Z" fill="#777777"/>
</g>
<defs>
<clipPath id="clip0_71_207">
<rect width="68" height="69" fill="white" transform="matrix(1 0 0 -1 0.390991 69.0605)"/>
</clipPath>
</defs>
</svg>
