<svg width="69" height="70" viewBox="0 0 69 70" fill="none" xmlns="http://www.w3.org/2000/svg">
<g clip-path="url(#clip0_71_200)">
<path d="M47.2207 51.1621C47.7519 51.6048 47.8405 52.0918 47.4863 52.623L43.3691 59.7949C43.0149 60.3262 42.528 60.5033 41.9082 60.3262L36.8613 58.334C34.9134 60.1048 32.6556 61.3887 30.0879 62.1855L29.291 67.6309C29.2024 68.2507 28.804 68.5605 28.0957 68.5605H19.8613C19.2415 68.5605 18.8873 68.2507 18.7988 67.6309L17.8691 62.1855C15.39 61.3887 13.1321 60.1048 11.0957 58.334L6.0488 60.3262C5.42901 60.5033 4.9863 60.3262 4.72068 59.7949L0.603491 52.623C0.249325 52.0918 0.337866 51.6048 0.869116 51.1621L5.11912 47.709C4.76495 46.3809 4.58787 45.097 4.58787 43.8574C4.58787 42.6178 4.76495 41.334 5.11912 40.0059L0.869116 36.5527C0.337866 36.11 0.249325 35.623 0.603491 35.0918L4.72068 27.9199C4.9863 27.3887 5.42901 27.2559 6.0488 27.5215L11.0957 29.3809C13.1321 27.61 15.39 26.3262 17.8691 25.5293L18.7988 20.084C18.8873 19.4642 19.2415 19.1543 19.8613 19.1543H28.0957C28.804 19.1543 29.2024 19.4642 29.291 20.084L30.0879 25.5293C32.6556 26.3262 34.9134 27.61 36.8613 29.3809L41.9082 27.5215C42.528 27.2559 43.0149 27.3887 43.3691 27.9199L47.4863 35.0918C47.8405 35.623 47.7519 36.11 47.2207 36.5527L42.9707 40.0059C43.2363 41.334 43.3691 42.6178 43.3691 43.8574C43.3691 45.097 43.2363 46.3809 42.9707 47.709L47.2207 51.1621ZM41.9082 57.8027L44.9629 52.3574L40.9785 49.0371C40.6243 48.7715 40.4915 48.4173 40.5801 47.9746C40.9342 46.5579 41.1113 45.1855 41.1113 43.8574C41.1113 42.5293 40.9342 41.1569 40.5801 39.7402C40.4915 39.2975 40.6243 38.9434 40.9785 38.6777L44.9629 35.3574L41.9082 29.9121L36.9941 31.7715C36.5514 31.9486 36.153 31.86 35.7988 31.5059C33.7623 29.5579 31.416 28.2298 28.7597 27.5215C28.317 27.3444 28.0514 27.0345 27.9629 26.5918L27.166 21.4121H20.9238L20.1269 26.5918C20.0384 27.0345 19.7728 27.3444 19.3301 27.5215C16.5853 28.2298 14.1946 29.5579 12.1582 31.5059C11.804 31.86 11.4056 31.9486 10.9629 31.7715L6.18162 29.9121L2.99412 35.3574L7.1113 38.6777C7.46547 38.9434 7.59828 39.2975 7.50974 39.7402C7.15557 41.1569 6.97849 42.5293 6.97849 43.8574C6.97849 45.1855 7.15557 46.5579 7.50974 47.9746C7.59828 48.4173 7.46547 48.7715 7.1113 49.0371L2.99412 52.3574L6.18162 57.8027L10.9629 55.9434C11.4056 55.7663 11.804 55.8548 12.1582 56.209C14.1946 58.1569 16.5853 59.485 19.3301 60.1934C19.7728 60.3704 20.0384 60.6803 20.1269 61.123L20.9238 66.3027H27.166L27.9629 61.123C28.0514 60.6803 28.317 60.3704 28.7597 60.1934C31.416 59.485 33.7623 58.1569 35.7988 56.209C36.153 55.8548 36.5514 55.7663 36.9941 55.9434L41.9082 57.8027ZM15.7441 35.5566C15.7441 35.5566 16.3196 34.9922 17.4707 33.8633C18.6217 32.7344 20.8131 32.1699 24.0449 32.1699C27.2767 32.1699 30.0436 33.2988 32.3457 35.5566C34.6478 37.8145 35.7988 40.5814 35.7988 43.8574C35.7988 47.1335 34.6478 49.9004 32.3457 52.1582C30.0436 54.416 27.2767 55.5449 24.0449 55.5449C20.8131 55.5449 18.0462 54.416 15.7441 52.1582C13.442 49.9004 12.291 47.1335 12.291 43.8574C12.291 40.5814 13.442 37.8145 15.7441 35.5566ZM17.3379 50.498C17.3379 50.498 17.8027 50.9629 18.7324 51.8926C19.6621 52.8223 21.4329 53.2871 24.0449 53.2871C26.6569 53.2871 28.8704 52.3574 30.6855 50.498C32.5006 48.6387 33.4082 46.4251 33.4082 43.8574C33.4082 41.2897 32.5006 39.0762 30.6855 37.2168C28.8704 35.3574 26.6569 34.4277 24.0449 34.4277C21.4329 34.4277 19.1972 35.3574 17.3379 37.2168C15.4785 39.0762 14.5488 41.2897 14.5488 43.8574C14.5488 46.4251 15.4785 48.6387 17.3379 50.498ZM65.1504 21.1465C65.6816 21.5892 65.7702 22.0762 65.416 22.6074L62.7597 27.2559C62.4941 27.7871 62.0514 27.9642 61.4316 27.7871L58.3769 26.5918C57.1373 27.6543 55.7649 28.4512 54.2597 28.9824L53.8613 32.1699C53.6842 32.7897 53.2858 33.0996 52.666 33.0996H47.3535C46.7337 33.0996 46.3795 32.7897 46.291 32.1699L45.7597 28.9824C44.2545 28.4512 42.8821 27.6543 41.6426 26.5918L38.7207 27.7871C38.1009 27.9642 37.6139 27.7871 37.2597 27.2559L34.6035 22.6074C34.3379 22.0762 34.4264 21.5892 34.8691 21.1465L37.3926 19.1543C37.304 18.3574 37.2597 17.5827 37.2597 16.8301C37.2597 16.0775 37.304 15.3027 37.3926 14.5059L34.8691 12.3809C34.4264 12.0267 34.3379 11.5397 34.6035 10.9199L37.2597 6.4043C37.6139 5.87305 38.1009 5.69596 38.7207 5.87305L41.6426 7.06836C42.8821 6.00586 44.2545 5.20898 45.7597 4.67773L46.291 1.49023C46.3795 0.870445 46.7337 0.560547 47.3535 0.560547H52.666C53.2858 0.560547 53.6842 0.870445 53.8613 1.49023L54.2597 4.67773C55.7649 5.20898 57.1373 6.00586 58.3769 7.06836L61.4316 5.87305C62.0514 5.69596 62.4941 5.87305 62.7597 6.4043L65.416 10.9199C65.7702 11.5397 65.6816 12.0267 65.1504 12.3809L62.6269 14.5059C62.804 15.3027 62.8926 16.0775 62.8926 16.8301C62.8926 17.5827 62.804 18.3574 62.6269 19.1543L65.1504 21.1465ZM61.2988 25.2637L63.0254 22.3418L60.6347 20.4824C60.2806 20.2168 60.1478 19.8184 60.2363 19.2871C60.5019 18.4902 60.6347 17.6712 60.6347 16.8301C60.6347 15.9889 60.5019 15.1257 60.2363 14.2402C60.1478 13.7975 60.2806 13.4434 60.6347 13.1777L63.0254 11.3184L61.2988 8.39648L58.5097 9.45898C58.067 9.63607 57.6686 9.54753 57.3144 9.19336C56.0748 8.04232 54.6139 7.20117 52.9316 6.66992C52.4889 6.58138 52.2233 6.27148 52.1347 5.74023L51.7363 2.81836H48.416L47.8847 5.74023C47.7962 6.27148 47.5306 6.58138 47.0879 6.66992C45.4056 7.20117 43.9446 8.04232 42.7051 9.19336C42.3509 9.54753 41.9524 9.63607 41.5097 9.45898L38.7207 8.39648L37.1269 11.3184L39.3847 13.1777C39.8274 13.4434 39.9603 13.7975 39.7832 14.2402C39.6061 15.1257 39.5176 15.9889 39.5176 16.8301C39.5176 17.6712 39.6061 18.4902 39.7832 19.2871C39.9603 19.8184 39.8274 20.2168 39.3847 20.4824L37.1269 22.3418L38.7207 25.2637L41.5097 24.2012C41.9524 24.0241 42.3509 24.1126 42.7051 24.4668C43.9446 25.6178 45.4056 26.459 47.0879 26.9902C47.5306 27.0788 47.7962 27.3887 47.8847 27.9199L48.416 30.709H51.7363L52.1347 27.9199C52.2233 27.3887 52.4889 27.0788 52.9316 26.9902C54.6139 26.459 56.0748 25.6178 57.3144 24.4668C57.6686 24.1126 58.067 24.0241 58.5097 24.2012L61.2988 25.2637ZM44.498 11.252C44.498 11.252 44.8854 10.8646 45.6601 10.0898C46.4349 9.31511 47.9069 8.92773 50.0761 8.92773C52.2454 8.92773 54.1048 9.70247 55.6543 11.252C57.2038 12.8014 57.9785 14.6608 57.9785 16.8301C57.9785 18.9993 57.2038 20.8587 55.6543 22.4082C54.1048 23.9577 52.2454 24.7324 50.0761 24.7324C47.9069 24.7324 46.0475 23.9577 44.498 22.4082C42.9485 20.8587 42.1738 18.9993 42.1738 16.8301C42.1738 14.6608 42.9485 12.8014 44.498 11.252ZM50.0097 22.4746C51.6035 22.4746 52.9538 21.9212 54.0605 20.8145C55.1673 19.7077 55.7207 18.3796 55.7207 16.8301C55.7207 15.2806 55.1673 13.9525 54.0605 12.8457C52.9538 11.7389 51.6035 11.1855 50.0097 11.1855C49.0358 11.1855 48.1061 11.429 47.2207 11.916C46.3353 12.403 45.6491 13.0892 45.1621 13.9746C44.6751 14.86 44.4316 15.8118 44.4316 16.8301C44.4316 17.8483 44.6751 18.778 45.1621 19.6191C45.6491 20.4603 46.3353 21.1465 47.2207 21.6777C48.1061 22.209 49.0358 22.4746 50.0097 22.4746Z" fill="#777777"/>
</g>
<defs>
<clipPath id="clip0_71_200">
<rect width="68" height="69" fill="white" transform="matrix(1 0 0 -1 0.390991 69.0605)"/>
</clipPath>
</defs>
</svg>
