<svg width="14" height="16" viewBox="0 0 14 16" fill="none" xmlns="http://www.w3.org/2000/svg">
<path d="M13.75 8.1541V9.98574C13.1031 10.1334 12.4527 10.2002 11.9184 10.2002C10.6211 12.9213 8.29727 15.2557 7.52031 15.6916C7.02813 15.9693 6.56758 15.9869 6.01914 15.6635C5.06641 15.0904 1.45234 12.1268 0.25 2.81035H2.86914C3.52656 8.40371 5.13672 11.2725 6.90508 13.4205C7.88594 12.4396 8.83164 11.1318 9.56289 9.6623C7.81211 8.77285 6.74688 6.81816 6.74688 4.54355C6.74688 2.2373 8.07227 0.49707 10.3398 0.49707C14.3793 0.49707 14.0734 4.99355 13.2086 6.87793C13.2086 6.87793 11.5773 7.20137 10.9762 6.15723C11.0957 5.75996 11.2645 5.07441 11.2645 4.45215C11.2645 3.35176 10.8672 2.81387 10.266 2.81387C9.62617 2.81387 9.1832 3.41504 9.1832 4.57168C9.18672 7.35605 11.2715 8.74473 13.75 8.1541Z" fill="white"/>
</svg>
