<svg width="22" height="14" viewBox="0 0 22 14" fill="none" xmlns="http://www.w3.org/2000/svg">
<path d="M13.3224 6.23326C13.3869 6.57399 13.4329 6.91473 13.4329 7.35671C13.4329 11.2152 10.8452 13.9502 6.94995 13.9502C3.22044 13.9502 0.199951 10.9297 0.199951 7.2002C0.199951 3.47064 3.22044 0.450195 6.94995 0.450195C8.77329 0.450195 10.2927 1.11321 11.4714 2.21827L9.63888 3.97714C9.14159 3.49828 8.2668 2.93655 6.94995 2.93655C4.64778 2.93655 2.76917 4.84276 2.76917 7.2002C2.76917 9.55763 4.64778 11.4638 6.94995 11.4638C9.62045 11.4638 10.6242 9.53921 10.7808 8.55385H6.94995V6.23322H13.3224V6.23326ZM19.8406 6.45956V4.5002H17.8718V6.45956H15.9124V8.42834H17.8718V10.3877H19.8406V8.42834H21.8V6.45956H19.8406Z" fill="white"/>
</svg>
