<svg width="18" height="16" viewBox="0 0 18 16" fill="none" xmlns="http://www.w3.org/2000/svg">
<path d="M16.1497 4.53401C16.1612 4.6939 16.1612 4.85382 16.1612 5.01371C16.1612 9.89059 12.4493 15.5099 5.66497 15.5099C3.57486 15.5099 1.63325 14.9045 0 13.8538C0.296965 13.8881 0.582469 13.8995 0.890859 13.8995C2.61545 13.8995 4.20303 13.317 5.4708 12.3234C3.84898 12.2891 2.48984 11.2269 2.02155 9.76498C2.25 9.79922 2.47841 9.82207 2.71828 9.82207C3.04949 9.82207 3.38073 9.77637 3.68909 9.69646C1.99874 9.35379 0.730934 7.86904 0.730934 6.07589V6.03022C1.22203 6.30434 1.79314 6.47565 2.39843 6.49847C1.40477 5.83602 0.753785 4.70532 0.753785 3.42613C0.753785 2.74086 0.936492 2.11269 1.25631 1.56446C3.0723 3.80304 5.80201 5.26494 8.86289 5.42487C8.8058 5.15075 8.77152 4.86525 8.77152 4.57971C8.77152 2.5467 10.4162 0.890625 12.4606 0.890625C13.5228 0.890625 14.4822 1.33605 15.156 2.0556C15.9898 1.89571 16.7893 1.58732 17.4974 1.16474C17.2233 2.02136 16.6408 2.7409 15.8756 3.19772C16.618 3.11781 17.3375 2.91218 17.9999 2.62668C17.4975 3.35761 16.8693 4.0086 16.1497 4.53401Z" fill="white"/>
</svg>
