<svg width="19" height="25" viewBox="0 0 19 25" fill="none" xmlns="http://www.w3.org/2000/svg">
<path d="M16.891 0.840332H1.89099C1.06271 0.840332 0.390991 1.51205 0.390991 2.34033V12.8403H18.391V2.34033C18.391 1.51205 17.7193 0.840332 16.891 0.840332ZM0.390991 15.8403C0.390991 17.4974 1.73443 18.8403 3.39099 18.8403H6.39099V21.8403C6.39099 23.4974 7.73443 24.8403 9.39099 24.8403C11.0476 24.8403 12.391 23.4974 12.391 21.8403V18.8403H15.391C17.0476 18.8403 18.391 17.4974 18.391 15.8403V14.3403H0.390991V15.8403ZM9.39099 20.7153C10.0121 20.7153 10.516 21.2188 10.516 21.8403C10.516 22.4614 10.0121 22.9653 9.39099 22.9653C8.7699 22.9653 8.26599 22.4614 8.26599 21.8403C8.26599 21.2188 8.7699 20.7153 9.39099 20.7153Z" fill="#7C4FE0"/>
</svg>
