<svg width="22" height="25" viewBox="0 0 22 25" fill="none" xmlns="http://www.w3.org/2000/svg">
<path d="M20.946 18.6844L11.735 23.2697C11.6264 23.3163 11.5094 23.3403 11.3912 23.3403C11.273 23.3403 11.156 23.3163 11.0474 23.2697L1.83599 18.6844C1.64849 18.5906 1.64849 18.4369 1.83599 18.3426L4.04192 17.2467C4.15072 17.2001 4.26786 17.1761 4.38622 17.1761C4.50459 17.1761 4.62172 17.2001 4.73052 17.2467L11.0474 20.3873C11.156 20.4342 11.273 20.4584 11.3912 20.4584C11.5095 20.4584 11.6265 20.4342 11.735 20.3873L18.0519 17.2467C18.1606 17.2001 18.2777 17.176 18.396 17.176C18.5143 17.176 18.6313 17.2001 18.74 17.2467L20.946 18.345C21.1358 18.4369 21.1358 18.5906 20.946 18.6844ZM20.946 12.2845L18.74 11.1862C18.6313 11.1396 18.5143 11.1156 18.396 11.1156C18.2777 11.1156 18.1606 11.1396 18.0519 11.1862L11.735 14.3306C11.6264 14.377 11.5094 14.4009 11.3912 14.4009C11.273 14.4009 11.1561 14.377 11.0474 14.3306L4.73052 11.1862C4.62172 11.1396 4.50459 11.1156 4.38622 11.1156C4.26786 11.1156 4.15072 11.1396 4.04192 11.1862L1.83599 12.2845C1.64849 12.3783 1.64849 12.5325 1.83599 12.6272L11.0474 17.2115C11.156 17.2582 11.273 17.2822 11.3912 17.2822C11.5094 17.2822 11.6264 17.2582 11.735 17.2115L20.946 12.6272C21.1358 12.5325 21.1358 12.3787 20.946 12.2845ZM1.83599 6.95389L11.0469 11.1862C11.2679 11.273 11.5136 11.273 11.7346 11.1862L20.946 6.95389C21.1335 6.86671 21.1335 6.72468 20.946 6.63796L11.7346 2.40608C11.5137 2.31842 11.2678 2.31842 11.0469 2.40608L1.83599 6.63796C1.64614 6.72468 1.64614 6.86671 1.83599 6.95389Z" fill="#7C4FE0"/>
</svg>
