<svg width="28" height="25" viewBox="0 0 28 25" fill="none" xmlns="http://www.w3.org/2000/svg">
<path d="M24.5496 15.8403H10.8084L11.1152 17.3403H23.6973C24.4192 17.3403 24.9543 18.0107 24.7943 18.7147L24.5357 19.8526C25.4119 20.2779 26.016 21.176 26.016 22.2153C26.016 23.6779 24.8198 24.8611 23.3524 24.84C21.9544 24.8199 20.8047 23.6855 20.767 22.2878C20.7464 21.5244 21.0522 20.8324 21.5546 20.3403H11.7274C12.2138 20.8168 12.516 21.4806 12.516 22.2153C12.516 23.7066 11.2725 24.9074 9.76583 24.8374C8.42802 24.7753 7.34001 23.6944 7.26969 22.3569C7.21541 21.3241 7.75888 20.4137 8.58459 19.9388L5.29176 3.84033H2.01599C1.39466 3.84033 0.890991 3.33666 0.890991 2.71533V1.96533C0.890991 1.344 1.39466 0.840332 2.01599 0.840332H6.82204C7.35646 0.840332 7.8171 1.21632 7.92421 1.73986L8.35387 3.84033H26.7655C27.4874 3.84033 28.0225 4.51069 27.8625 5.21466L25.6466 14.9647C25.5302 15.4769 25.0749 15.8403 24.5496 15.8403ZM19.783 9.84033H17.766V7.02783C17.766 6.71719 17.5141 6.46533 17.2035 6.46533H16.0785C15.7679 6.46533 15.516 6.71719 15.516 7.02783V9.84033H13.499C12.9979 9.84033 12.7469 10.4462 13.1013 10.8006L16.2433 13.9426C16.4629 14.1622 16.8191 14.1622 17.0388 13.9426L20.1808 10.8006C20.5351 10.4462 20.2841 9.84033 19.783 9.84033Z" fill="#7C4FE0"/>
</svg>
