<svg width="19" height="19" viewBox="0 0 19 19" fill="none" xmlns="http://www.w3.org/2000/svg">
<path d="M18.55 7.14824C18.6871 7.03926 18.891 7.14121 18.891 7.31348V14.5029C18.891 15.4346 18.1351 16.1904 17.2035 16.1904H2.57849C1.64685 16.1904 0.890991 15.4346 0.890991 14.5029V7.31699C0.890991 7.14121 1.09138 7.04277 1.23201 7.15176C2.01951 7.76348 3.06365 8.54043 6.64959 11.1455C7.39138 11.6869 8.64294 12.826 9.89099 12.8189C11.1461 12.8295 12.4222 11.6658 13.1359 11.1455C16.7219 8.54043 17.7625 7.75996 18.55 7.14824ZM9.89099 11.6904C10.7066 11.7045 11.8808 10.6639 12.4715 10.235C17.1367 6.84941 17.4918 6.5541 18.5676 5.71035C18.7715 5.55215 18.891 5.30605 18.891 5.0459V4.37793C18.891 3.44629 18.1351 2.69043 17.2035 2.69043H2.57849C1.64685 2.69043 0.890991 3.44629 0.890991 4.37793V5.0459C0.890991 5.30605 1.01052 5.54863 1.21443 5.71035C2.29021 6.55059 2.64529 6.84941 7.31052 10.235C7.90115 10.6639 9.07537 11.7045 9.89099 11.6904Z" fill="white"/>
</svg>
