<svg width="19" height="19" viewBox="0 0 19 19" fill="none" xmlns="http://www.w3.org/2000/svg">
<path d="M18.3774 13.1596L14.4399 11.4721C14.2717 11.4005 14.0847 11.3854 13.9072 11.4291C13.7296 11.4729 13.5711 11.5731 13.4555 11.7147L11.7117 13.8452C8.97508 12.5549 6.7727 10.3525 5.4824 7.61585L7.61287 5.8721C7.75478 5.75668 7.85523 5.59816 7.899 5.42054C7.94277 5.24292 7.92748 5.05588 7.85544 4.88773L6.16794 0.950228C6.08888 0.768965 5.94905 0.620971 5.77256 0.531763C5.59607 0.442555 5.39398 0.417726 5.20115 0.461556L1.5449 1.30531C1.35898 1.34824 1.1931 1.45292 1.07434 1.60227C0.955582 1.75161 0.890948 1.9368 0.890991 2.12761C0.890991 11.1452 8.19998 18.4401 17.2035 18.4401C17.3944 18.4402 17.5796 18.3756 17.7291 18.2569C17.8785 18.1381 17.9832 17.9722 18.0261 17.7862L18.8699 14.13C18.9134 13.9362 18.8881 13.7333 18.7982 13.5562C18.7083 13.3791 18.5595 13.2389 18.3774 13.1596Z" fill="white"/>
</svg>
