<svg width="22" height="19" viewBox="0 0 22 19" fill="none" xmlns="http://www.w3.org/2000/svg">
<path d="M10.6278 5.65289L4.146 10.9914V16.7531C4.146 16.9023 4.20527 17.0454 4.31076 17.1509C4.41625 17.2564 4.55932 17.3156 4.7085 17.3156L8.64811 17.3054C8.79681 17.3047 8.93916 17.2451 9.04404 17.1397C9.14893 17.0343 9.2078 16.8916 9.2078 16.7429V13.3781C9.2078 13.2289 9.26706 13.0859 9.37255 12.9804C9.47804 12.8749 9.62112 12.8156 9.7703 12.8156H12.0203C12.1695 12.8156 12.3126 12.8749 12.418 12.9804C12.5235 13.0859 12.5828 13.2289 12.5828 13.3781V16.7405C12.5826 16.8145 12.5969 16.8878 12.6251 16.9563C12.6533 17.0247 12.6947 17.0869 12.7469 17.1394C12.7992 17.1918 12.8613 17.2334 12.9296 17.2617C12.998 17.2901 13.0713 17.3047 13.1453 17.3047L17.0835 17.3156C17.2327 17.3156 17.3758 17.2564 17.4813 17.1509C17.5867 17.0454 17.646 16.9023 17.646 16.7531V10.9875L11.1657 5.65289C11.0895 5.59148 10.9946 5.55799 10.8967 5.55799C10.7989 5.55799 10.7039 5.59148 10.6278 5.65289ZM20.8663 9.28137L17.9273 6.85875V1.98926C17.9273 1.87737 17.8828 1.77006 17.8037 1.69095C17.7246 1.61183 17.6173 1.56738 17.5054 1.56738H15.5366C15.4247 1.56738 15.3174 1.61183 15.2383 1.69095C15.1592 1.77006 15.1148 1.87737 15.1148 1.98926V4.54195L11.9672 1.95234C11.6652 1.70378 11.2861 1.56788 10.8949 1.56788C10.5038 1.56788 10.1247 1.70378 9.82268 1.95234L0.923582 9.28137C0.880863 9.31668 0.84552 9.36006 0.819572 9.40903C0.793623 9.458 0.777579 9.51161 0.772355 9.56678C0.767132 9.62196 0.772831 9.67762 0.789127 9.7306C0.805424 9.78357 0.831998 9.83281 0.867332 9.87551L1.76382 10.9654C1.79905 11.0082 1.8424 11.0437 1.89136 11.0698C1.94033 11.0958 1.99396 11.112 2.04918 11.1173C2.1044 11.1226 2.16012 11.117 2.21317 11.1008C2.26621 11.0845 2.31554 11.058 2.35831 11.0227L10.6278 4.21148C10.7039 4.15008 10.7989 4.11659 10.8967 4.11659C10.9946 4.11659 11.0895 4.15008 11.1657 4.21148L19.4355 11.0227C19.4782 11.058 19.5274 11.0846 19.5804 11.1009C19.6333 11.1172 19.689 11.1229 19.7442 11.1176C19.7994 11.1124 19.853 11.0964 19.9019 11.0704C19.9509 11.0445 19.9943 11.0091 20.0296 10.9664L20.9261 9.87656C20.9614 9.83362 20.9878 9.78412 21.0039 9.73092C21.0201 9.67771 21.0255 9.62185 21.0199 9.56654C21.0144 9.51123 20.9979 9.45756 20.9716 9.40862C20.9452 9.35968 20.9094 9.31644 20.8663 9.28137Z" fill="white"/>
</svg>
