<svg width="25" height="25" viewBox="0 0 25 25" fill="none" xmlns="http://www.w3.org/2000/svg">
<path d="M24.391 22.2007C24.391 23.4433 23.3836 24.4507 22.141 24.4507H2.64099C1.39833 24.4507 0.390991 23.4433 0.390991 22.2007V9.85963C0.390995 9.51844 0.468592 9.18172 0.617912 8.87495C0.767232 8.56817 0.984364 8.29937 1.25288 8.08888C2.42068 7.17346 3.38574 6.43114 8.94976 2.39305C9.73843 1.81803 11.3034 0.434425 12.391 0.450832C13.4784 0.434238 15.0439 1.81827 15.8322 2.393C21.3957 6.43068 22.3621 7.17402 23.5291 8.08888C23.7976 8.29937 24.0148 8.56817 24.1641 8.87495C24.3134 9.18172 24.391 9.51844 24.391 9.85963V22.2007ZM21.3129 12.9848C21.1928 12.8101 20.952 12.7694 20.7814 12.8954C19.7105 13.6864 18.1816 14.8035 15.8322 16.5085C15.0436 17.0835 13.4786 18.467 12.391 18.4506C11.303 18.4667 9.73979 17.0845 8.94976 16.5085C6.60066 14.8037 5.0716 13.6865 4.0006 12.8954C3.83002 12.7694 3.58923 12.8101 3.46908 12.9848L3.04384 13.6034C2.98871 13.6835 2.96689 13.7819 2.98298 13.8779C2.99906 13.9738 3.05179 14.0597 3.13004 14.1175C4.20287 14.9096 5.72944 16.0248 8.06612 17.7207C9.01646 18.4135 10.7157 19.9619 12.391 19.9506C14.0656 19.962 15.7642 18.4145 16.7158 17.7207C19.0525 16.0248 20.5792 14.9096 21.6519 14.1175C21.7301 14.0597 21.7829 13.9738 21.799 13.8779C21.815 13.7819 21.7932 13.6835 21.7381 13.6034L21.3129 12.9848Z" fill="#7C4FE0"/>
</svg>
