<svg width="22" height="25" viewBox="0 0 22 25" fill="none" xmlns="http://www.w3.org/2000/svg">
<path d="M11.391 24.4507C13.0466 24.4507 14.3896 23.1077 14.3896 21.4507H8.39237C8.39237 23.1077 9.73534 24.4507 11.391 24.4507ZM21.4874 17.433C20.5817 16.4599 18.8872 14.996 18.8872 10.2007C18.8872 6.5585 16.3335 3.64287 12.89 2.92756V1.95068C12.89 1.1224 12.2188 0.450684 11.391 0.450684C10.5631 0.450684 9.8919 1.1224 9.8919 1.95068V2.92756C6.44846 3.64287 3.89471 6.5585 3.89471 10.2007C3.89471 14.996 2.20018 16.4599 1.29456 17.433C1.01331 17.7354 0.888619 18.0968 0.890963 18.4507C0.896119 19.2194 1.4994 19.9507 2.39565 19.9507H20.3863C21.2825 19.9507 21.8863 19.2194 21.891 18.4507C21.8933 18.0968 21.7686 17.7349 21.4874 17.433Z" fill="#7C4FE0"/>
</svg>
